<mxfile host="app.diagrams.net" agent="Mozilla/5.0 (Windows NT 10.0; Win64; x64; rv:138.0) Gecko/20100101 Firefox/138.0" version="26.2.14">
  <diagram id="R2lEEEUBdFMjLlhIrx00" name="Page-1">
    <mxGraphModel dx="1080" dy="563" grid="1" gridSize="10" guides="1" tooltips="1" connect="1" arrows="1" fold="1" page="1" pageScale="1" pageWidth="1169" pageHeight="827" math="0" shadow="0" extFonts="Permanent Marker^https://fonts.googleapis.com/css?family=Permanent+Marker">
      <root>
        <mxCell id="0" />
        <mxCell id="1" parent="0" />
        <mxCell id="bqQAZCj2C-ECfoDd7BLj-1" value="User" style="rounded=0;whiteSpace=wrap;html=1;" vertex="1" parent="1">
          <mxGeometry x="100" y="250" width="100" height="40" as="geometry" />
        </mxCell>
        <mxCell id="bqQAZCj2C-ECfoDd7BLj-2" value="CopyPaste" style="rounded=0;whiteSpace=wrap;html=1;" vertex="1" parent="1">
          <mxGeometry x="630" y="20" width="100" height="40" as="geometry" />
        </mxCell>
        <mxCell id="bqQAZCj2C-ECfoDd7BLj-3" value="ApiKey" style="rounded=0;whiteSpace=wrap;html=1;" vertex="1" parent="1">
          <mxGeometry x="100" y="20" width="100" height="40" as="geometry" />
        </mxCell>
        <mxCell id="bqQAZCj2C-ECfoDd7BLj-4" value="Product" style="rounded=0;whiteSpace=wrap;html=1;" vertex="1" parent="1">
          <mxGeometry x="460" y="500" width="105" height="40" as="geometry" />
        </mxCell>
        <mxCell id="bqQAZCj2C-ECfoDd7BLj-5" value="Wishlist" style="rounded=0;whiteSpace=wrap;html=1;" vertex="1" parent="1">
          <mxGeometry x="460" y="250" width="100" height="40" as="geometry" />
        </mxCell>
        <mxCell id="bqQAZCj2C-ECfoDd7BLj-6" value="ProductImage" style="rounded=0;whiteSpace=wrap;html=1;" vertex="1" parent="1">
          <mxGeometry x="164.75" y="700" width="100" height="40" as="geometry" />
        </mxCell>
        <mxCell id="bqQAZCj2C-ECfoDd7BLj-7" value="Category" style="rounded=0;whiteSpace=wrap;html=1;" vertex="1" parent="1">
          <mxGeometry x="810" y="260" width="100" height="40" as="geometry" />
        </mxCell>
        <mxCell id="bqQAZCj2C-ECfoDd7BLj-8" value="Brand" style="rounded=0;whiteSpace=wrap;html=1;" vertex="1" parent="1">
          <mxGeometry x="960" y="500" width="100" height="40" as="geometry" />
        </mxCell>
        <mxCell id="bqQAZCj2C-ECfoDd7BLj-9" value="Retailer" style="rounded=0;whiteSpace=wrap;html=1;" vertex="1" parent="1">
          <mxGeometry x="960" y="700" width="100" height="40" as="geometry" />
        </mxCell>
        <mxCell id="bqQAZCj2C-ECfoDd7BLj-10" value="Price" style="rounded=0;whiteSpace=wrap;html=1;" vertex="1" parent="1">
          <mxGeometry x="465" y="725" width="100" height="40" as="geometry" />
        </mxCell>
        <mxCell id="bqQAZCj2C-ECfoDd7BLj-12" value="Review" style="rounded=0;whiteSpace=wrap;html=1;" vertex="1" parent="1">
          <mxGeometry x="60" y="570" width="100" height="40" as="geometry" />
        </mxCell>
        <mxCell id="bqQAZCj2C-ECfoDd7BLj-14" value="Has" style="rhombus;whiteSpace=wrap;html=1;" vertex="1" parent="1">
          <mxGeometry x="110" y="120" width="80" height="60" as="geometry" />
        </mxCell>
        <mxCell id="bqQAZCj2C-ECfoDd7BLj-15" value="Has" style="rhombus;whiteSpace=wrap;html=1;" vertex="1" parent="1">
          <mxGeometry x="300" y="240" width="80" height="60" as="geometry" />
        </mxCell>
        <mxCell id="bqQAZCj2C-ECfoDd7BLj-17" value="Has" style="rhombus;whiteSpace=wrap;html=1;" vertex="1" parent="1">
          <mxGeometry x="470" y="354" width="80" height="60" as="geometry" />
        </mxCell>
        <mxCell id="bqQAZCj2C-ECfoDd7BLj-18" value="Within" style="rhombus;whiteSpace=wrap;html=1;" vertex="1" parent="1">
          <mxGeometry x="660" y="340" width="80" height="60" as="geometry" />
        </mxCell>
        <mxCell id="bqQAZCj2C-ECfoDd7BLj-20" value="BelongsTo" style="rhombus;whiteSpace=wrap;html=1;" vertex="1" parent="1">
          <mxGeometry x="750" y="490" width="80" height="60" as="geometry" />
        </mxCell>
        <mxCell id="bqQAZCj2C-ECfoDd7BLj-21" value="Has" style="rhombus;whiteSpace=wrap;html=1;perimeterSpacing=1;" vertex="1" parent="1">
          <mxGeometry x="475" y="610" width="80" height="60" as="geometry" />
        </mxCell>
        <mxCell id="bqQAZCj2C-ECfoDd7BLj-22" value="Has" style="rhombus;whiteSpace=wrap;html=1;" vertex="1" parent="1">
          <mxGeometry x="750" y="610" width="80" height="60" as="geometry" />
        </mxCell>
        <mxCell id="bqQAZCj2C-ECfoDd7BLj-23" value="Has" style="rhombus;whiteSpace=wrap;html=1;" vertex="1" parent="1">
          <mxGeometry x="245" y="510" width="80" height="60" as="geometry" />
        </mxCell>
        <mxCell id="bqQAZCj2C-ECfoDd7BLj-24" value="Makes" style="rhombus;whiteSpace=wrap;html=1;" vertex="1" parent="1">
          <mxGeometry x="110" y="370" width="80" height="56" as="geometry" />
        </mxCell>
        <mxCell id="bqQAZCj2C-ECfoDd7BLj-25" value="&lt;u&gt;ApiKey&lt;/u&gt;" style="ellipse;whiteSpace=wrap;html=1;" vertex="1" parent="1">
          <mxGeometry x="250" y="20" width="70" height="30" as="geometry" />
        </mxCell>
        <mxCell id="bqQAZCj2C-ECfoDd7BLj-26" value="Created_at" style="ellipse;whiteSpace=wrap;html=1;" vertex="1" parent="1">
          <mxGeometry x="240" y="100" width="70" height="30" as="geometry" />
        </mxCell>
        <mxCell id="bqQAZCj2C-ECfoDd7BLj-28" value="Last_used" style="ellipse;whiteSpace=wrap;html=1;" vertex="1" parent="1">
          <mxGeometry x="20" y="90" width="70" height="30" as="geometry" />
        </mxCell>
        <mxCell id="bqQAZCj2C-ECfoDd7BLj-29" value="" style="endArrow=none;html=1;rounded=0;" edge="1" parent="1">
          <mxGeometry width="50" height="50" relative="1" as="geometry">
            <mxPoint x="565" y="70" as="sourcePoint" />
            <mxPoint x="615" y="20" as="targetPoint" />
          </mxGeometry>
        </mxCell>
        <mxCell id="bqQAZCj2C-ECfoDd7BLj-30" value="" style="endArrow=none;html=1;rounded=0;exitX=0;exitY=1;exitDx=0;exitDy=0;entryX=1;entryY=0;entryDx=0;entryDy=0;" edge="1" parent="1" source="bqQAZCj2C-ECfoDd7BLj-3" target="bqQAZCj2C-ECfoDd7BLj-28">
          <mxGeometry width="50" height="50" relative="1" as="geometry">
            <mxPoint x="440" y="260" as="sourcePoint" />
            <mxPoint x="490" y="210" as="targetPoint" />
          </mxGeometry>
        </mxCell>
        <mxCell id="bqQAZCj2C-ECfoDd7BLj-31" value="" style="endArrow=none;html=1;rounded=0;entryX=1;entryY=0.5;entryDx=0;entryDy=0;exitX=0;exitY=0.5;exitDx=0;exitDy=0;" edge="1" parent="1" source="bqQAZCj2C-ECfoDd7BLj-25" target="bqQAZCj2C-ECfoDd7BLj-3">
          <mxGeometry width="50" height="50" relative="1" as="geometry">
            <mxPoint x="450" y="270" as="sourcePoint" />
            <mxPoint x="500" y="220" as="targetPoint" />
          </mxGeometry>
        </mxCell>
        <mxCell id="bqQAZCj2C-ECfoDd7BLj-32" value="" style="endArrow=none;html=1;rounded=0;exitX=1;exitY=1;exitDx=0;exitDy=0;entryX=0;entryY=0;entryDx=0;entryDy=0;" edge="1" parent="1" source="bqQAZCj2C-ECfoDd7BLj-3" target="bqQAZCj2C-ECfoDd7BLj-26">
          <mxGeometry width="50" height="50" relative="1" as="geometry">
            <mxPoint x="460" y="280" as="sourcePoint" />
            <mxPoint x="510" y="230" as="targetPoint" />
          </mxGeometry>
        </mxCell>
        <mxCell id="bqQAZCj2C-ECfoDd7BLj-33" value="" style="shape=link;html=1;rounded=0;entryX=0.5;entryY=0;entryDx=0;entryDy=0;exitX=0.5;exitY=1;exitDx=0;exitDy=0;exitPerimeter=0;" edge="1" parent="1" source="bqQAZCj2C-ECfoDd7BLj-3" target="bqQAZCj2C-ECfoDd7BLj-14">
          <mxGeometry relative="1" as="geometry">
            <mxPoint x="370" y="230" as="sourcePoint" />
            <mxPoint x="530" y="230" as="targetPoint" />
          </mxGeometry>
        </mxCell>
        <mxCell id="bqQAZCj2C-ECfoDd7BLj-34" value="N" style="resizable=0;html=1;whiteSpace=wrap;align=right;verticalAlign=bottom;" connectable="0" vertex="1" parent="bqQAZCj2C-ECfoDd7BLj-33">
          <mxGeometry x="1" relative="1" as="geometry">
            <mxPoint x="20" y="-5" as="offset" />
          </mxGeometry>
        </mxCell>
        <mxCell id="bqQAZCj2C-ECfoDd7BLj-35" value="" style="shape=link;html=1;rounded=0;entryX=0.5;entryY=1;entryDx=0;entryDy=0;exitX=0.5;exitY=0;exitDx=0;exitDy=0;" edge="1" parent="1" source="bqQAZCj2C-ECfoDd7BLj-1" target="bqQAZCj2C-ECfoDd7BLj-14">
          <mxGeometry relative="1" as="geometry">
            <mxPoint x="370" y="230" as="sourcePoint" />
            <mxPoint x="530" y="230" as="targetPoint" />
          </mxGeometry>
        </mxCell>
        <mxCell id="bqQAZCj2C-ECfoDd7BLj-36" value="1" style="resizable=0;html=1;whiteSpace=wrap;align=right;verticalAlign=bottom;" connectable="0" vertex="1" parent="bqQAZCj2C-ECfoDd7BLj-35">
          <mxGeometry x="1" relative="1" as="geometry">
            <mxPoint x="20" y="20" as="offset" />
          </mxGeometry>
        </mxCell>
        <mxCell id="bqQAZCj2C-ECfoDd7BLj-37" value="" style="shape=link;html=1;rounded=0;entryX=0.5;entryY=1;entryDx=0;entryDy=0;exitX=0.5;exitY=0;exitDx=0;exitDy=0;" edge="1" parent="1" source="bqQAZCj2C-ECfoDd7BLj-12" target="bqQAZCj2C-ECfoDd7BLj-24">
          <mxGeometry relative="1" as="geometry">
            <mxPoint x="540" y="360" as="sourcePoint" />
            <mxPoint x="700" y="360" as="targetPoint" />
          </mxGeometry>
        </mxCell>
        <mxCell id="bqQAZCj2C-ECfoDd7BLj-38" value="N" style="resizable=0;html=1;whiteSpace=wrap;align=right;verticalAlign=bottom;" connectable="0" vertex="1" parent="bqQAZCj2C-ECfoDd7BLj-37">
          <mxGeometry x="1" relative="1" as="geometry">
            <mxPoint x="20" y="18" as="offset" />
          </mxGeometry>
        </mxCell>
        <mxCell id="bqQAZCj2C-ECfoDd7BLj-41" value="&lt;u&gt;userID&lt;/u&gt;" style="ellipse;whiteSpace=wrap;html=1;" vertex="1" parent="1">
          <mxGeometry x="10" y="220" width="70" height="30" as="geometry" />
        </mxCell>
        <mxCell id="bqQAZCj2C-ECfoDd7BLj-42" value="FName" style="ellipse;whiteSpace=wrap;html=1;" vertex="1" parent="1">
          <mxGeometry x="10" y="265" width="70" height="30" as="geometry" />
        </mxCell>
        <mxCell id="bqQAZCj2C-ECfoDd7BLj-43" value="LName" style="ellipse;whiteSpace=wrap;html=1;" vertex="1" parent="1">
          <mxGeometry x="10" y="360" width="70" height="30" as="geometry" />
        </mxCell>
        <mxCell id="bqQAZCj2C-ECfoDd7BLj-48" style="edgeStyle=orthogonalEdgeStyle;rounded=0;orthogonalLoop=1;jettySize=auto;html=1;exitX=0;exitY=0.5;exitDx=0;exitDy=0;entryX=0.5;entryY=1;entryDx=0;entryDy=0;endArrow=none;startFill=0;" edge="1" parent="1" source="bqQAZCj2C-ECfoDd7BLj-44" target="bqQAZCj2C-ECfoDd7BLj-42">
          <mxGeometry relative="1" as="geometry" />
        </mxCell>
        <mxCell id="bqQAZCj2C-ECfoDd7BLj-49" style="edgeStyle=orthogonalEdgeStyle;rounded=0;orthogonalLoop=1;jettySize=auto;html=1;entryX=0.5;entryY=0;entryDx=0;entryDy=0;exitX=0;exitY=0.5;exitDx=0;exitDy=0;endArrow=none;startFill=0;" edge="1" parent="1" source="bqQAZCj2C-ECfoDd7BLj-44" target="bqQAZCj2C-ECfoDd7BLj-43">
          <mxGeometry relative="1" as="geometry">
            <Array as="points">
              <mxPoint x="45" y="325" />
            </Array>
          </mxGeometry>
        </mxCell>
        <mxCell id="bqQAZCj2C-ECfoDd7BLj-44" value="Name" style="ellipse;whiteSpace=wrap;html=1;" vertex="1" parent="1">
          <mxGeometry x="60" y="310" width="70" height="30" as="geometry" />
        </mxCell>
        <mxCell id="bqQAZCj2C-ECfoDd7BLj-46" value="" style="endArrow=none;html=1;rounded=0;exitX=0.5;exitY=0;exitDx=0;exitDy=0;entryX=0;entryY=1;entryDx=0;entryDy=0;" edge="1" parent="1" source="bqQAZCj2C-ECfoDd7BLj-44" target="bqQAZCj2C-ECfoDd7BLj-1">
          <mxGeometry width="50" height="50" relative="1" as="geometry">
            <mxPoint x="440" y="260" as="sourcePoint" />
            <mxPoint x="490" y="210" as="targetPoint" />
          </mxGeometry>
        </mxCell>
        <mxCell id="bqQAZCj2C-ECfoDd7BLj-47" value="" style="endArrow=none;html=1;rounded=0;entryX=1;entryY=0.5;entryDx=0;entryDy=0;exitX=0;exitY=0;exitDx=0;exitDy=0;" edge="1" parent="1" source="bqQAZCj2C-ECfoDd7BLj-1" target="bqQAZCj2C-ECfoDd7BLj-41">
          <mxGeometry width="50" height="50" relative="1" as="geometry">
            <mxPoint x="450" y="270" as="sourcePoint" />
            <mxPoint x="500" y="220" as="targetPoint" />
          </mxGeometry>
        </mxCell>
        <mxCell id="bqQAZCj2C-ECfoDd7BLj-50" value="Hash_Password" style="ellipse;whiteSpace=wrap;html=1;" vertex="1" parent="1">
          <mxGeometry x="190" y="170" width="90" height="30" as="geometry" />
        </mxCell>
        <mxCell id="bqQAZCj2C-ECfoDd7BLj-51" value="salt" style="ellipse;whiteSpace=wrap;html=1;" vertex="1" parent="1">
          <mxGeometry x="195" y="340" width="70" height="30" as="geometry" />
        </mxCell>
        <mxCell id="bqQAZCj2C-ECfoDd7BLj-52" value="Reg_date" style="ellipse;whiteSpace=wrap;html=1;" vertex="1" parent="1">
          <mxGeometry x="230" y="300" width="70" height="30" as="geometry" />
        </mxCell>
        <mxCell id="bqQAZCj2C-ECfoDd7BLj-53" value="Last_login" style="ellipse;whiteSpace=wrap;html=1;dashed=1;" vertex="1" parent="1">
          <mxGeometry x="40" y="170" width="70" height="30" as="geometry" />
        </mxCell>
        <mxCell id="bqQAZCj2C-ECfoDd7BLj-54" value="" style="endArrow=none;html=1;rounded=0;exitX=1;exitY=0;exitDx=0;exitDy=0;" edge="1" parent="1" source="bqQAZCj2C-ECfoDd7BLj-1">
          <mxGeometry width="50" height="50" relative="1" as="geometry">
            <mxPoint x="440" y="260" as="sourcePoint" />
            <mxPoint x="220" y="200" as="targetPoint" />
          </mxGeometry>
        </mxCell>
        <mxCell id="bqQAZCj2C-ECfoDd7BLj-55" value="" style="endArrow=none;html=1;rounded=0;entryX=0.737;entryY=0.953;entryDx=0;entryDy=0;exitX=0.25;exitY=0;exitDx=0;exitDy=0;entryPerimeter=0;" edge="1" parent="1" source="bqQAZCj2C-ECfoDd7BLj-1" target="bqQAZCj2C-ECfoDd7BLj-53">
          <mxGeometry width="50" height="50" relative="1" as="geometry">
            <mxPoint x="450" y="270" as="sourcePoint" />
            <mxPoint x="500" y="220" as="targetPoint" />
          </mxGeometry>
        </mxCell>
        <mxCell id="bqQAZCj2C-ECfoDd7BLj-57" value="" style="endArrow=none;html=1;rounded=0;exitX=1;exitY=1;exitDx=0;exitDy=0;entryX=0;entryY=0.5;entryDx=0;entryDy=0;" edge="1" parent="1" source="bqQAZCj2C-ECfoDd7BLj-1" target="bqQAZCj2C-ECfoDd7BLj-52">
          <mxGeometry width="50" height="50" relative="1" as="geometry">
            <mxPoint x="460" y="280" as="sourcePoint" />
            <mxPoint x="510" y="230" as="targetPoint" />
          </mxGeometry>
        </mxCell>
        <mxCell id="bqQAZCj2C-ECfoDd7BLj-58" value="" style="endArrow=none;html=1;rounded=0;exitX=0.75;exitY=1;exitDx=0;exitDy=0;entryX=0;entryY=0;entryDx=0;entryDy=0;" edge="1" parent="1" source="bqQAZCj2C-ECfoDd7BLj-1" target="bqQAZCj2C-ECfoDd7BLj-51">
          <mxGeometry width="50" height="50" relative="1" as="geometry">
            <mxPoint x="470" y="290" as="sourcePoint" />
            <mxPoint x="520" y="240" as="targetPoint" />
          </mxGeometry>
        </mxCell>
        <mxCell id="bqQAZCj2C-ECfoDd7BLj-60" value="" style="shape=link;html=1;rounded=0;entryX=1;entryY=0.5;entryDx=0;entryDy=0;exitX=0;exitY=0.5;exitDx=0;exitDy=0;" edge="1" parent="1" source="bqQAZCj2C-ECfoDd7BLj-5" target="bqQAZCj2C-ECfoDd7BLj-15">
          <mxGeometry relative="1" as="geometry">
            <mxPoint x="160" y="510" as="sourcePoint" />
            <mxPoint x="160" y="436" as="targetPoint" />
          </mxGeometry>
        </mxCell>
        <mxCell id="bqQAZCj2C-ECfoDd7BLj-61" value="N" style="resizable=0;html=1;whiteSpace=wrap;align=right;verticalAlign=bottom;" connectable="0" vertex="1" parent="bqQAZCj2C-ECfoDd7BLj-60">
          <mxGeometry x="1" relative="1" as="geometry">
            <mxPoint x="10" y="-5" as="offset" />
          </mxGeometry>
        </mxCell>
        <mxCell id="bqQAZCj2C-ECfoDd7BLj-68" value="CopyPaste" style="ellipse;whiteSpace=wrap;html=1;" vertex="1" parent="1">
          <mxGeometry x="760" y="25" width="70" height="30" as="geometry" />
        </mxCell>
        <mxCell id="bqQAZCj2C-ECfoDd7BLj-69" value="Added_at" style="ellipse;whiteSpace=wrap;html=1;" vertex="1" parent="1">
          <mxGeometry x="600" y="190" width="70" height="30" as="geometry" />
        </mxCell>
        <mxCell id="bqQAZCj2C-ECfoDd7BLj-72" value="" style="endArrow=none;html=1;rounded=0;entryX=0;entryY=0.5;entryDx=0;entryDy=0;exitX=1;exitY=0;exitDx=0;exitDy=0;" edge="1" parent="1" source="bqQAZCj2C-ECfoDd7BLj-5" target="bqQAZCj2C-ECfoDd7BLj-69">
          <mxGeometry width="50" height="50" relative="1" as="geometry">
            <mxPoint x="420" y="200" as="sourcePoint" />
            <mxPoint x="470" y="150" as="targetPoint" />
          </mxGeometry>
        </mxCell>
        <mxCell id="bqQAZCj2C-ECfoDd7BLj-73" value="&lt;u&gt;ProductID&lt;/u&gt;" style="ellipse;whiteSpace=wrap;html=1;" vertex="1" parent="1">
          <mxGeometry x="340" y="444" width="70" height="30" as="geometry" />
        </mxCell>
        <mxCell id="bqQAZCj2C-ECfoDd7BLj-75" value="Title" style="ellipse;whiteSpace=wrap;html=1;" vertex="1" parent="1">
          <mxGeometry x="400" y="410" width="70" height="30" as="geometry" />
        </mxCell>
        <mxCell id="bqQAZCj2C-ECfoDd7BLj-76" value="Image_url" style="ellipse;whiteSpace=wrap;html=1;" vertex="1" parent="1">
          <mxGeometry x="560" y="600" width="70" height="30" as="geometry" />
        </mxCell>
        <mxCell id="bqQAZCj2C-ECfoDd7BLj-77" value="Description" style="ellipse;whiteSpace=wrap;html=1;" vertex="1" parent="1">
          <mxGeometry x="410" y="600" width="70" height="30" as="geometry" />
        </mxCell>
        <mxCell id="bqQAZCj2C-ECfoDd7BLj-79" value="Availability" style="ellipse;whiteSpace=wrap;html=1;dashed=1;" vertex="1" parent="1">
          <mxGeometry x="620" y="460" width="70" height="30" as="geometry" />
        </mxCell>
        <mxCell id="bqQAZCj2C-ECfoDd7BLj-85" value="" style="endArrow=none;html=1;rounded=0;entryX=1;entryY=1;entryDx=0;entryDy=0;exitX=0;exitY=0;exitDx=0;exitDy=0;" edge="1" parent="1" source="bqQAZCj2C-ECfoDd7BLj-4" target="bqQAZCj2C-ECfoDd7BLj-73">
          <mxGeometry width="50" height="50" relative="1" as="geometry">
            <mxPoint x="420" y="200" as="sourcePoint" />
            <mxPoint x="470" y="150" as="targetPoint" />
          </mxGeometry>
        </mxCell>
        <mxCell id="bqQAZCj2C-ECfoDd7BLj-86" value="" style="endArrow=none;html=1;rounded=0;exitX=0.5;exitY=0;exitDx=0;exitDy=0;entryX=0.186;entryY=1.08;entryDx=0;entryDy=0;entryPerimeter=0;" edge="1" parent="1" source="bqQAZCj2C-ECfoDd7BLj-77" target="bqQAZCj2C-ECfoDd7BLj-4">
          <mxGeometry width="50" height="50" relative="1" as="geometry">
            <mxPoint x="430" y="210" as="sourcePoint" />
            <mxPoint x="480" y="160" as="targetPoint" />
          </mxGeometry>
        </mxCell>
        <mxCell id="bqQAZCj2C-ECfoDd7BLj-87" value="" style="endArrow=none;html=1;rounded=0;entryX=0;entryY=1;entryDx=0;entryDy=0;exitX=1;exitY=0.5;exitDx=0;exitDy=0;" edge="1" parent="1" source="bqQAZCj2C-ECfoDd7BLj-4" target="bqQAZCj2C-ECfoDd7BLj-79">
          <mxGeometry width="50" height="50" relative="1" as="geometry">
            <mxPoint x="440" y="220" as="sourcePoint" />
            <mxPoint x="490" y="170" as="targetPoint" />
          </mxGeometry>
        </mxCell>
        <mxCell id="bqQAZCj2C-ECfoDd7BLj-88" value="" style="endArrow=none;html=1;rounded=0;entryX=0.5;entryY=1;entryDx=0;entryDy=0;exitX=0.25;exitY=0;exitDx=0;exitDy=0;" edge="1" parent="1" source="bqQAZCj2C-ECfoDd7BLj-4" target="bqQAZCj2C-ECfoDd7BLj-75">
          <mxGeometry width="50" height="50" relative="1" as="geometry">
            <mxPoint x="450" y="230" as="sourcePoint" />
            <mxPoint x="500" y="180" as="targetPoint" />
          </mxGeometry>
        </mxCell>
        <mxCell id="bqQAZCj2C-ECfoDd7BLj-89" value="" style="endArrow=none;html=1;rounded=0;entryX=0.337;entryY=0.013;entryDx=0;entryDy=0;exitX=0.88;exitY=1.005;exitDx=0;exitDy=0;exitPerimeter=0;entryPerimeter=0;" edge="1" parent="1" source="bqQAZCj2C-ECfoDd7BLj-4" target="bqQAZCj2C-ECfoDd7BLj-76">
          <mxGeometry width="50" height="50" relative="1" as="geometry">
            <mxPoint x="460" y="240" as="sourcePoint" />
            <mxPoint x="510" y="190" as="targetPoint" />
          </mxGeometry>
        </mxCell>
        <mxCell id="bqQAZCj2C-ECfoDd7BLj-92" value="ProductImage" style="rounded=0;whiteSpace=wrap;html=1;" vertex="1" parent="1">
          <mxGeometry x="169.88" y="705" width="89.75" height="30" as="geometry" />
        </mxCell>
        <mxCell id="bqQAZCj2C-ECfoDd7BLj-93" value="" style="shape=link;html=1;rounded=0;exitX=0.5;exitY=0;exitDx=0;exitDy=0;entryX=0.5;entryY=1;entryDx=0;entryDy=0;" edge="1" parent="1" source="bqQAZCj2C-ECfoDd7BLj-10" target="bqQAZCj2C-ECfoDd7BLj-21">
          <mxGeometry relative="1" as="geometry">
            <mxPoint x="518" y="506" as="sourcePoint" />
            <mxPoint x="540" y="690" as="targetPoint" />
          </mxGeometry>
        </mxCell>
        <mxCell id="bqQAZCj2C-ECfoDd7BLj-94" value="N" style="resizable=0;html=1;whiteSpace=wrap;align=right;verticalAlign=bottom;" connectable="0" vertex="1" parent="bqQAZCj2C-ECfoDd7BLj-93">
          <mxGeometry x="1" relative="1" as="geometry">
            <mxPoint x="20" y="12" as="offset" />
          </mxGeometry>
        </mxCell>
        <mxCell id="bqQAZCj2C-ECfoDd7BLj-95" value="" style="shape=link;html=1;rounded=0;entryX=0.5;entryY=0;entryDx=0;entryDy=0;exitX=0.5;exitY=1;exitDx=0;exitDy=0;" edge="1" parent="1" source="bqQAZCj2C-ECfoDd7BLj-4" target="bqQAZCj2C-ECfoDd7BLj-21">
          <mxGeometry relative="1" as="geometry">
            <mxPoint x="520" y="300" as="sourcePoint" />
            <mxPoint x="520" y="364" as="targetPoint" />
          </mxGeometry>
        </mxCell>
        <mxCell id="bqQAZCj2C-ECfoDd7BLj-96" value="1" style="resizable=0;html=1;whiteSpace=wrap;align=right;verticalAlign=bottom;" connectable="0" vertex="1" parent="bqQAZCj2C-ECfoDd7BLj-95">
          <mxGeometry x="1" relative="1" as="geometry">
            <mxPoint x="20" as="offset" />
          </mxGeometry>
        </mxCell>
        <mxCell id="bqQAZCj2C-ECfoDd7BLj-97" value="&lt;u&gt;ImageID&lt;/u&gt;" style="ellipse;whiteSpace=wrap;html=1;" vertex="1" parent="1">
          <mxGeometry x="50" y="760" width="70" height="30" as="geometry" />
        </mxCell>
        <mxCell id="bqQAZCj2C-ECfoDd7BLj-98" value="Image_url" style="ellipse;whiteSpace=wrap;html=1;" vertex="1" parent="1">
          <mxGeometry x="270" y="770" width="70" height="30" as="geometry" />
        </mxCell>
        <mxCell id="bqQAZCj2C-ECfoDd7BLj-101" value="" style="endArrow=none;html=1;rounded=0;exitX=0.286;exitY=0;exitDx=0;exitDy=0;entryX=1;entryY=1;entryDx=0;entryDy=0;exitPerimeter=0;" edge="1" parent="1" source="bqQAZCj2C-ECfoDd7BLj-98" target="bqQAZCj2C-ECfoDd7BLj-6">
          <mxGeometry width="50" height="50" relative="1" as="geometry">
            <mxPoint x="310.00126265847075" y="744.3933982822018" as="sourcePoint" />
            <mxPoint x="319.75" y="630" as="targetPoint" />
          </mxGeometry>
        </mxCell>
        <mxCell id="bqQAZCj2C-ECfoDd7BLj-102" value="" style="endArrow=none;html=1;rounded=0;exitX=0;exitY=1;exitDx=0;exitDy=0;entryX=1;entryY=0;entryDx=0;entryDy=0;" edge="1" parent="1" source="bqQAZCj2C-ECfoDd7BLj-6" target="bqQAZCj2C-ECfoDd7BLj-97">
          <mxGeometry width="50" height="50" relative="1" as="geometry">
            <mxPoint x="319.75" y="754" as="sourcePoint" />
            <mxPoint x="139.75" y="755" as="targetPoint" />
          </mxGeometry>
        </mxCell>
        <mxCell id="bqQAZCj2C-ECfoDd7BLj-103" value="&lt;u&gt;CategoryID&lt;/u&gt;" style="ellipse;whiteSpace=wrap;html=1;" vertex="1" parent="1">
          <mxGeometry x="900" y="190" width="70" height="30" as="geometry" />
        </mxCell>
        <mxCell id="bqQAZCj2C-ECfoDd7BLj-104" value="" style="endArrow=none;html=1;rounded=0;exitX=0;exitY=1;exitDx=0;exitDy=0;entryX=0.856;entryY=0.02;entryDx=0;entryDy=0;entryPerimeter=0;" edge="1" parent="1" source="bqQAZCj2C-ECfoDd7BLj-103" target="bqQAZCj2C-ECfoDd7BLj-7">
          <mxGeometry width="50" height="50" relative="1" as="geometry">
            <mxPoint x="420" y="200" as="sourcePoint" />
            <mxPoint x="470" y="150" as="targetPoint" />
          </mxGeometry>
        </mxCell>
        <mxCell id="bqQAZCj2C-ECfoDd7BLj-105" value="" style="endArrow=none;html=1;rounded=0;exitX=1;exitY=1;exitDx=0;exitDy=0;entryX=0;entryY=0.5;entryDx=0;entryDy=0;" edge="1" parent="1" source="bqQAZCj2C-ECfoDd7BLj-7" target="bqQAZCj2C-ECfoDd7BLj-106">
          <mxGeometry width="50" height="50" relative="1" as="geometry">
            <mxPoint x="430" y="210" as="sourcePoint" />
            <mxPoint x="950" y="330" as="targetPoint" />
          </mxGeometry>
        </mxCell>
        <mxCell id="bqQAZCj2C-ECfoDd7BLj-106" value="name" style="ellipse;whiteSpace=wrap;html=1;" vertex="1" parent="1">
          <mxGeometry x="950" y="324" width="70" height="30" as="geometry" />
        </mxCell>
        <mxCell id="bqQAZCj2C-ECfoDd7BLj-107" value="" style="shape=link;html=1;rounded=0;exitX=1;exitY=0;exitDx=0;exitDy=0;entryX=0;entryY=1;entryDx=0;entryDy=0;" edge="1" parent="1" source="bqQAZCj2C-ECfoDd7BLj-4" target="bqQAZCj2C-ECfoDd7BLj-18">
          <mxGeometry relative="1" as="geometry">
            <mxPoint x="519" y="509" as="sourcePoint" />
            <mxPoint x="520" y="424" as="targetPoint" />
          </mxGeometry>
        </mxCell>
        <mxCell id="bqQAZCj2C-ECfoDd7BLj-108" value="N" style="resizable=0;html=1;whiteSpace=wrap;align=right;verticalAlign=bottom;" connectable="0" vertex="1" parent="bqQAZCj2C-ECfoDd7BLj-107">
          <mxGeometry x="1" relative="1" as="geometry">
            <mxPoint x="-20" y="15" as="offset" />
          </mxGeometry>
        </mxCell>
        <mxCell id="bqQAZCj2C-ECfoDd7BLj-109" value="" style="shape=link;html=1;rounded=0;entryX=1;entryY=0;entryDx=0;entryDy=0;exitX=0;exitY=1;exitDx=0;exitDy=0;width=4;" edge="1" parent="1" source="bqQAZCj2C-ECfoDd7BLj-7" target="bqQAZCj2C-ECfoDd7BLj-18">
          <mxGeometry relative="1" as="geometry">
            <mxPoint x="520" y="300" as="sourcePoint" />
            <mxPoint x="520" y="364" as="targetPoint" />
          </mxGeometry>
        </mxCell>
        <mxCell id="bqQAZCj2C-ECfoDd7BLj-110" value="1" style="resizable=0;html=1;whiteSpace=wrap;align=right;verticalAlign=bottom;" connectable="0" vertex="1" parent="bqQAZCj2C-ECfoDd7BLj-109">
          <mxGeometry x="1" relative="1" as="geometry">
            <mxPoint x="10" y="-15" as="offset" />
          </mxGeometry>
        </mxCell>
        <mxCell id="bqQAZCj2C-ECfoDd7BLj-111" value="" style="shape=link;html=1;rounded=0;entryX=0;entryY=0.5;entryDx=0;entryDy=0;exitX=1;exitY=0.75;exitDx=0;exitDy=0;" edge="1" parent="1" source="bqQAZCj2C-ECfoDd7BLj-4" target="bqQAZCj2C-ECfoDd7BLj-20">
          <mxGeometry relative="1" as="geometry">
            <mxPoint x="519" y="509" as="sourcePoint" />
            <mxPoint x="520" y="424" as="targetPoint" />
          </mxGeometry>
        </mxCell>
        <mxCell id="bqQAZCj2C-ECfoDd7BLj-112" value="N" style="resizable=0;html=1;whiteSpace=wrap;align=right;verticalAlign=bottom;" connectable="0" vertex="1" parent="bqQAZCj2C-ECfoDd7BLj-111">
          <mxGeometry x="1" relative="1" as="geometry">
            <mxPoint as="offset" />
          </mxGeometry>
        </mxCell>
        <mxCell id="bqQAZCj2C-ECfoDd7BLj-113" value="" style="shape=link;html=1;rounded=0;entryX=1;entryY=0.5;entryDx=0;entryDy=0;exitX=0;exitY=0.5;exitDx=0;exitDy=0;width=-4;" edge="1" parent="1" source="bqQAZCj2C-ECfoDd7BLj-8" target="bqQAZCj2C-ECfoDd7BLj-20">
          <mxGeometry relative="1" as="geometry">
            <mxPoint x="520" y="300" as="sourcePoint" />
            <mxPoint x="520" y="364" as="targetPoint" />
          </mxGeometry>
        </mxCell>
        <mxCell id="bqQAZCj2C-ECfoDd7BLj-114" value="1" style="resizable=0;html=1;whiteSpace=wrap;align=right;verticalAlign=bottom;" connectable="0" vertex="1" parent="bqQAZCj2C-ECfoDd7BLj-113">
          <mxGeometry x="1" relative="1" as="geometry">
            <mxPoint x="20" as="offset" />
          </mxGeometry>
        </mxCell>
        <mxCell id="bqQAZCj2C-ECfoDd7BLj-115" value="name" style="ellipse;whiteSpace=wrap;html=1;" vertex="1" parent="1">
          <mxGeometry x="1070" y="570" width="70" height="30" as="geometry" />
        </mxCell>
        <mxCell id="bqQAZCj2C-ECfoDd7BLj-116" value="&lt;u&gt;BrandID&lt;/u&gt;" style="ellipse;whiteSpace=wrap;html=1;" vertex="1" parent="1">
          <mxGeometry x="1060" y="414" width="70" height="30" as="geometry" />
        </mxCell>
        <mxCell id="bqQAZCj2C-ECfoDd7BLj-117" value="" style="endArrow=none;html=1;rounded=0;exitX=1;exitY=0;exitDx=0;exitDy=0;entryX=0;entryY=1;entryDx=0;entryDy=0;" edge="1" parent="1" source="bqQAZCj2C-ECfoDd7BLj-8" target="bqQAZCj2C-ECfoDd7BLj-116">
          <mxGeometry width="50" height="50" relative="1" as="geometry">
            <mxPoint x="920" y="310" as="sourcePoint" />
            <mxPoint x="960" y="349" as="targetPoint" />
          </mxGeometry>
        </mxCell>
        <mxCell id="bqQAZCj2C-ECfoDd7BLj-118" value="" style="endArrow=none;html=1;rounded=0;exitX=1;exitY=1;exitDx=0;exitDy=0;entryX=0;entryY=0;entryDx=0;entryDy=0;" edge="1" parent="1" source="bqQAZCj2C-ECfoDd7BLj-8" target="bqQAZCj2C-ECfoDd7BLj-115">
          <mxGeometry width="50" height="50" relative="1" as="geometry">
            <mxPoint x="930" y="320" as="sourcePoint" />
            <mxPoint x="970" y="359" as="targetPoint" />
          </mxGeometry>
        </mxCell>
        <mxCell id="bqQAZCj2C-ECfoDd7BLj-119" value="name" style="ellipse;whiteSpace=wrap;html=1;" vertex="1" parent="1">
          <mxGeometry x="1090" y="770" width="70" height="30" as="geometry" />
        </mxCell>
        <mxCell id="bqQAZCj2C-ECfoDd7BLj-120" value="" style="endArrow=none;html=1;rounded=0;exitX=1;exitY=1;exitDx=0;exitDy=0;entryX=0;entryY=0.5;entryDx=0;entryDy=0;" edge="1" parent="1" source="bqQAZCj2C-ECfoDd7BLj-9" target="bqQAZCj2C-ECfoDd7BLj-119">
          <mxGeometry width="50" height="50" relative="1" as="geometry">
            <mxPoint x="1070" y="550" as="sourcePoint" />
            <mxPoint x="1090" y="584" as="targetPoint" />
          </mxGeometry>
        </mxCell>
        <mxCell id="bqQAZCj2C-ECfoDd7BLj-121" value="" style="endArrow=none;html=1;rounded=0;exitX=1;exitY=0;exitDx=0;exitDy=0;entryX=0;entryY=1;entryDx=0;entryDy=0;" edge="1" parent="1" source="bqQAZCj2C-ECfoDd7BLj-9" target="bqQAZCj2C-ECfoDd7BLj-122">
          <mxGeometry width="50" height="50" relative="1" as="geometry">
            <mxPoint x="1080" y="560" as="sourcePoint" />
            <mxPoint x="1100" y="594" as="targetPoint" />
          </mxGeometry>
        </mxCell>
        <mxCell id="bqQAZCj2C-ECfoDd7BLj-122" value="&lt;u&gt;RetailerID&lt;/u&gt;" style="ellipse;whiteSpace=wrap;html=1;" vertex="1" parent="1">
          <mxGeometry x="1080" y="645" width="70" height="30" as="geometry" />
        </mxCell>
        <mxCell id="bqQAZCj2C-ECfoDd7BLj-125" value="" style="shape=link;html=1;rounded=0;exitX=1;exitY=1;exitDx=0;exitDy=0;" edge="1" parent="1" source="bqQAZCj2C-ECfoDd7BLj-4" target="bqQAZCj2C-ECfoDd7BLj-22">
          <mxGeometry relative="1" as="geometry">
            <mxPoint x="575" y="540" as="sourcePoint" />
            <mxPoint x="760" y="530" as="targetPoint" />
          </mxGeometry>
        </mxCell>
        <mxCell id="bqQAZCj2C-ECfoDd7BLj-126" value="N" style="resizable=0;html=1;whiteSpace=wrap;align=right;verticalAlign=bottom;" connectable="0" vertex="1" parent="bqQAZCj2C-ECfoDd7BLj-125">
          <mxGeometry x="1" relative="1" as="geometry">
            <mxPoint x="2" y="-7" as="offset" />
          </mxGeometry>
        </mxCell>
        <mxCell id="bqQAZCj2C-ECfoDd7BLj-127" value="" style="shape=link;html=1;rounded=0;exitX=0;exitY=0.5;exitDx=0;exitDy=0;" edge="1" parent="1" source="bqQAZCj2C-ECfoDd7BLj-9" target="bqQAZCj2C-ECfoDd7BLj-22">
          <mxGeometry relative="1" as="geometry">
            <mxPoint x="585" y="550" as="sourcePoint" />
            <mxPoint x="770" y="540" as="targetPoint" />
          </mxGeometry>
        </mxCell>
        <mxCell id="bqQAZCj2C-ECfoDd7BLj-128" value="N" style="resizable=0;html=1;whiteSpace=wrap;align=right;verticalAlign=bottom;" connectable="0" vertex="1" parent="bqQAZCj2C-ECfoDd7BLj-127">
          <mxGeometry x="1" relative="1" as="geometry">
            <mxPoint x="32" y="1" as="offset" />
          </mxGeometry>
        </mxCell>
        <mxCell id="bqQAZCj2C-ECfoDd7BLj-129" value="Assigned" style="rhombus;whiteSpace=wrap;html=1;" vertex="1" parent="1">
          <mxGeometry x="280" y="600" width="80" height="60" as="geometry" />
        </mxCell>
        <mxCell id="bqQAZCj2C-ECfoDd7BLj-130" value="&lt;u&gt;PriceID&lt;/u&gt;" style="ellipse;whiteSpace=wrap;html=1;" vertex="1" parent="1">
          <mxGeometry x="370" y="690" width="70" height="30" as="geometry" />
        </mxCell>
        <mxCell id="bqQAZCj2C-ECfoDd7BLj-132" value="" style="shape=link;html=1;rounded=0;entryX=1;entryY=0;entryDx=0;entryDy=0;exitX=0;exitY=1;exitDx=0;exitDy=0;" edge="1" parent="1" source="bqQAZCj2C-ECfoDd7BLj-4" target="bqQAZCj2C-ECfoDd7BLj-129">
          <mxGeometry relative="1" as="geometry">
            <mxPoint x="525" y="550" as="sourcePoint" />
            <mxPoint x="525" y="619" as="targetPoint" />
          </mxGeometry>
        </mxCell>
        <mxCell id="bqQAZCj2C-ECfoDd7BLj-133" value="1" style="resizable=0;html=1;whiteSpace=wrap;align=right;verticalAlign=bottom;" connectable="0" vertex="1" parent="bqQAZCj2C-ECfoDd7BLj-132">
          <mxGeometry x="1" relative="1" as="geometry">
            <mxPoint x="10" y="-5" as="offset" />
          </mxGeometry>
        </mxCell>
        <mxCell id="bqQAZCj2C-ECfoDd7BLj-134" value="" style="shape=link;html=1;rounded=0;exitX=0.75;exitY=0;exitDx=0;exitDy=0;entryX=0;entryY=1;entryDx=0;entryDy=0;" edge="1" parent="1" source="bqQAZCj2C-ECfoDd7BLj-6" target="bqQAZCj2C-ECfoDd7BLj-129">
          <mxGeometry relative="1" as="geometry">
            <mxPoint x="525" y="735" as="sourcePoint" />
            <mxPoint x="525" y="681" as="targetPoint" />
          </mxGeometry>
        </mxCell>
        <mxCell id="bqQAZCj2C-ECfoDd7BLj-135" value="N" style="resizable=0;html=1;whiteSpace=wrap;align=right;verticalAlign=bottom;" connectable="0" vertex="1" parent="bqQAZCj2C-ECfoDd7BLj-134">
          <mxGeometry x="1" relative="1" as="geometry">
            <mxPoint x="-10" y="12" as="offset" />
          </mxGeometry>
        </mxCell>
        <mxCell id="bqQAZCj2C-ECfoDd7BLj-136" value="" style="endArrow=none;html=1;rounded=0;exitX=0;exitY=0.5;exitDx=0;exitDy=0;entryX=1;entryY=1;entryDx=0;entryDy=0;" edge="1" parent="1" source="bqQAZCj2C-ECfoDd7BLj-10" target="bqQAZCj2C-ECfoDd7BLj-130">
          <mxGeometry width="50" height="50" relative="1" as="geometry">
            <mxPoint x="300" y="780" as="sourcePoint" />
            <mxPoint x="275" y="750" as="targetPoint" />
          </mxGeometry>
        </mxCell>
        <mxCell id="bqQAZCj2C-ECfoDd7BLj-137" value="Price" style="ellipse;whiteSpace=wrap;html=1;" vertex="1" parent="1">
          <mxGeometry x="585" y="790" width="70" height="30" as="geometry" />
        </mxCell>
        <mxCell id="bqQAZCj2C-ECfoDd7BLj-138" value="" style="endArrow=none;html=1;rounded=0;exitX=0;exitY=0;exitDx=0;exitDy=0;entryX=1;entryY=1;entryDx=0;entryDy=0;" edge="1" parent="1" source="bqQAZCj2C-ECfoDd7BLj-137" target="bqQAZCj2C-ECfoDd7BLj-10">
          <mxGeometry width="50" height="50" relative="1" as="geometry">
            <mxPoint x="475" y="755" as="sourcePoint" />
            <mxPoint x="440" y="726" as="targetPoint" />
          </mxGeometry>
        </mxCell>
        <mxCell id="bqQAZCj2C-ECfoDd7BLj-139" value="Has" style="rhombus;whiteSpace=wrap;html=1;" vertex="1" parent="1">
          <mxGeometry x="710" y="720" width="80" height="60" as="geometry" />
        </mxCell>
        <mxCell id="bqQAZCj2C-ECfoDd7BLj-141" value="" style="shape=link;html=1;rounded=0;entryX=1;entryY=0.5;entryDx=0;entryDy=0;exitX=0;exitY=0.75;exitDx=0;exitDy=0;width=-4;" edge="1" parent="1" source="bqQAZCj2C-ECfoDd7BLj-9" target="bqQAZCj2C-ECfoDd7BLj-139">
          <mxGeometry relative="1" as="geometry">
            <mxPoint x="970" y="530" as="sourcePoint" />
            <mxPoint x="840" y="530" as="targetPoint" />
          </mxGeometry>
        </mxCell>
        <mxCell id="bqQAZCj2C-ECfoDd7BLj-142" value="1" style="resizable=0;html=1;whiteSpace=wrap;align=right;verticalAlign=bottom;" connectable="0" vertex="1" parent="bqQAZCj2C-ECfoDd7BLj-141">
          <mxGeometry x="1" relative="1" as="geometry">
            <mxPoint x="20" as="offset" />
          </mxGeometry>
        </mxCell>
        <mxCell id="bqQAZCj2C-ECfoDd7BLj-143" value="" style="shape=link;html=1;rounded=0;entryX=0;entryY=0.5;entryDx=0;entryDy=0;exitX=1;exitY=0.5;exitDx=0;exitDy=0;width=-4;" edge="1" parent="1" source="bqQAZCj2C-ECfoDd7BLj-10" target="bqQAZCj2C-ECfoDd7BLj-139">
          <mxGeometry relative="1" as="geometry">
            <mxPoint x="970" y="530" as="sourcePoint" />
            <mxPoint x="840" y="530" as="targetPoint" />
          </mxGeometry>
        </mxCell>
        <mxCell id="bqQAZCj2C-ECfoDd7BLj-144" value="1" style="resizable=0;html=1;whiteSpace=wrap;align=right;verticalAlign=bottom;" connectable="0" vertex="1" parent="bqQAZCj2C-ECfoDd7BLj-143">
          <mxGeometry x="1" relative="1" as="geometry">
            <mxPoint as="offset" />
          </mxGeometry>
        </mxCell>
        <mxCell id="bqQAZCj2C-ECfoDd7BLj-145" style="edgeStyle=orthogonalEdgeStyle;rounded=0;orthogonalLoop=1;jettySize=auto;html=1;exitX=0.5;exitY=1;exitDx=0;exitDy=0;" edge="1" parent="1" source="bqQAZCj2C-ECfoDd7BLj-130" target="bqQAZCj2C-ECfoDd7BLj-130">
          <mxGeometry relative="1" as="geometry" />
        </mxCell>
        <mxCell id="bqQAZCj2C-ECfoDd7BLj-146" value="&lt;u&gt;ReviewID&lt;/u&gt;" style="ellipse;whiteSpace=wrap;html=1;" vertex="1" parent="1">
          <mxGeometry x="10" y="520" width="70" height="30" as="geometry" />
        </mxCell>
        <mxCell id="bqQAZCj2C-ECfoDd7BLj-147" value="" style="endArrow=none;html=1;rounded=0;exitX=0.64;exitY=1.04;exitDx=0;exitDy=0;entryX=0;entryY=0;entryDx=0;entryDy=0;exitPerimeter=0;" edge="1" parent="1" source="bqQAZCj2C-ECfoDd7BLj-146" target="bqQAZCj2C-ECfoDd7BLj-12">
          <mxGeometry width="50" height="50" relative="1" as="geometry">
            <mxPoint x="175" y="750" as="sourcePoint" />
            <mxPoint x="120" y="774" as="targetPoint" />
          </mxGeometry>
        </mxCell>
        <mxCell id="bqQAZCj2C-ECfoDd7BLj-148" value="Rating" style="ellipse;whiteSpace=wrap;html=1;" vertex="1" parent="1">
          <mxGeometry x="170" y="490" width="70" height="30" as="geometry" />
        </mxCell>
        <mxCell id="bqQAZCj2C-ECfoDd7BLj-149" value="Text" style="ellipse;whiteSpace=wrap;html=1;" vertex="1" parent="1">
          <mxGeometry x="20" y="650" width="70" height="30" as="geometry" />
        </mxCell>
        <mxCell id="bqQAZCj2C-ECfoDd7BLj-150" value="Review_Date" style="ellipse;whiteSpace=wrap;html=1;" vertex="1" parent="1">
          <mxGeometry x="140" y="650" width="80" height="30" as="geometry" />
        </mxCell>
        <mxCell id="bqQAZCj2C-ECfoDd7BLj-152" value="" style="endArrow=none;html=1;rounded=0;exitX=0.297;exitY=1.027;exitDx=0;exitDy=0;entryX=1;entryY=0;entryDx=0;entryDy=0;exitPerimeter=0;" edge="1" parent="1" source="bqQAZCj2C-ECfoDd7BLj-148" target="bqQAZCj2C-ECfoDd7BLj-12">
          <mxGeometry width="50" height="50" relative="1" as="geometry">
            <mxPoint x="65" y="561" as="sourcePoint" />
            <mxPoint x="70" y="580" as="targetPoint" />
          </mxGeometry>
        </mxCell>
        <mxCell id="bqQAZCj2C-ECfoDd7BLj-153" value="" style="endArrow=none;html=1;rounded=0;entryX=0.68;entryY=0.04;entryDx=0;entryDy=0;entryPerimeter=0;" edge="1" parent="1" target="bqQAZCj2C-ECfoDd7BLj-149">
          <mxGeometry width="50" height="50" relative="1" as="geometry">
            <mxPoint x="70" y="610" as="sourcePoint" />
            <mxPoint x="80" y="590" as="targetPoint" />
          </mxGeometry>
        </mxCell>
        <mxCell id="bqQAZCj2C-ECfoDd7BLj-154" value="" style="endArrow=none;html=1;rounded=0;exitX=0.676;exitY=1.03;exitDx=0;exitDy=0;entryX=0;entryY=0;entryDx=0;entryDy=0;exitPerimeter=0;" edge="1" parent="1" source="bqQAZCj2C-ECfoDd7BLj-12" target="bqQAZCj2C-ECfoDd7BLj-150">
          <mxGeometry width="50" height="50" relative="1" as="geometry">
            <mxPoint x="85" y="581" as="sourcePoint" />
            <mxPoint x="90" y="600" as="targetPoint" />
          </mxGeometry>
        </mxCell>
        <mxCell id="bqQAZCj2C-ECfoDd7BLj-157" value="" style="shape=link;html=1;rounded=0;exitX=1;exitY=0.5;exitDx=0;exitDy=0;entryX=0.092;entryY=0.66;entryDx=0;entryDy=0;entryPerimeter=0;" edge="1" parent="1" source="bqQAZCj2C-ECfoDd7BLj-12" target="bqQAZCj2C-ECfoDd7BLj-23">
          <mxGeometry relative="1" as="geometry">
            <mxPoint x="250" y="710" as="sourcePoint" />
            <mxPoint x="310" y="655" as="targetPoint" />
          </mxGeometry>
        </mxCell>
        <mxCell id="bqQAZCj2C-ECfoDd7BLj-158" value="N" style="resizable=0;html=1;whiteSpace=wrap;align=right;verticalAlign=bottom;" connectable="0" vertex="1" parent="bqQAZCj2C-ECfoDd7BLj-157">
          <mxGeometry x="1" relative="1" as="geometry">
            <mxPoint x="-18" as="offset" />
          </mxGeometry>
        </mxCell>
        <mxCell id="bqQAZCj2C-ECfoDd7BLj-160" value="" style="endArrow=none;html=1;rounded=0;exitX=0.5;exitY=1;exitDx=0;exitDy=0;entryX=0.5;entryY=0;entryDx=0;entryDy=0;" edge="1" parent="1" source="bqQAZCj2C-ECfoDd7BLj-1" target="bqQAZCj2C-ECfoDd7BLj-24">
          <mxGeometry relative="1" as="geometry">
            <mxPoint x="600" y="269.5" as="sourcePoint" />
            <mxPoint x="760" y="269.5" as="targetPoint" />
          </mxGeometry>
        </mxCell>
        <mxCell id="bqQAZCj2C-ECfoDd7BLj-161" value="1" style="resizable=0;html=1;whiteSpace=wrap;align=right;verticalAlign=bottom;direction=south;" connectable="0" vertex="1" parent="bqQAZCj2C-ECfoDd7BLj-160">
          <mxGeometry x="1" relative="1" as="geometry">
            <mxPoint x="15" as="offset" />
          </mxGeometry>
        </mxCell>
        <mxCell id="bqQAZCj2C-ECfoDd7BLj-162" value="" style="endArrow=none;html=1;rounded=0;exitX=1;exitY=0.5;exitDx=0;exitDy=0;entryX=0;entryY=0.5;entryDx=0;entryDy=0;" edge="1" parent="1" source="bqQAZCj2C-ECfoDd7BLj-1" target="bqQAZCj2C-ECfoDd7BLj-15">
          <mxGeometry relative="1" as="geometry">
            <mxPoint x="400" y="260" as="sourcePoint" />
            <mxPoint x="560" y="260" as="targetPoint" />
          </mxGeometry>
        </mxCell>
        <mxCell id="bqQAZCj2C-ECfoDd7BLj-163" value="1" style="resizable=0;html=1;whiteSpace=wrap;align=right;verticalAlign=bottom;" connectable="0" vertex="1" parent="bqQAZCj2C-ECfoDd7BLj-162">
          <mxGeometry x="1" relative="1" as="geometry" />
        </mxCell>
        <mxCell id="bqQAZCj2C-ECfoDd7BLj-165" value="" style="endArrow=none;html=1;rounded=0;exitX=0;exitY=0.5;exitDx=0;exitDy=0;entryX=1;entryY=0.5;entryDx=0;entryDy=0;" edge="1" parent="1" source="bqQAZCj2C-ECfoDd7BLj-4" target="bqQAZCj2C-ECfoDd7BLj-23">
          <mxGeometry relative="1" as="geometry">
            <mxPoint x="160" y="300" as="sourcePoint" />
            <mxPoint x="160" y="380" as="targetPoint" />
          </mxGeometry>
        </mxCell>
        <mxCell id="bqQAZCj2C-ECfoDd7BLj-166" value="1" style="resizable=0;html=1;whiteSpace=wrap;align=right;verticalAlign=bottom;direction=south;" connectable="0" vertex="1" parent="bqQAZCj2C-ECfoDd7BLj-165">
          <mxGeometry x="1" relative="1" as="geometry">
            <mxPoint x="15" as="offset" />
          </mxGeometry>
        </mxCell>
        <mxCell id="bqQAZCj2C-ECfoDd7BLj-168" value="" style="endArrow=none;html=1;rounded=0;exitX=0.5;exitY=1;exitDx=0;exitDy=0;entryX=0.5;entryY=0;entryDx=0;entryDy=0;" edge="1" parent="1" source="bqQAZCj2C-ECfoDd7BLj-5" target="bqQAZCj2C-ECfoDd7BLj-17">
          <mxGeometry relative="1" as="geometry">
            <mxPoint x="210" y="280" as="sourcePoint" />
            <mxPoint x="310" y="280" as="targetPoint" />
          </mxGeometry>
        </mxCell>
        <mxCell id="bqQAZCj2C-ECfoDd7BLj-169" value="1" style="resizable=0;html=1;whiteSpace=wrap;align=right;verticalAlign=bottom;" connectable="0" vertex="1" parent="bqQAZCj2C-ECfoDd7BLj-168">
          <mxGeometry x="1" relative="1" as="geometry">
            <mxPoint x="20" y="1" as="offset" />
          </mxGeometry>
        </mxCell>
        <mxCell id="bqQAZCj2C-ECfoDd7BLj-170" value="" style="endArrow=none;html=1;rounded=0;entryX=0.5;entryY=1;entryDx=0;entryDy=0;exitX=0.5;exitY=0;exitDx=0;exitDy=0;" edge="1" parent="1" source="bqQAZCj2C-ECfoDd7BLj-4" target="bqQAZCj2C-ECfoDd7BLj-17">
          <mxGeometry relative="1" as="geometry">
            <mxPoint x="510" y="490" as="sourcePoint" />
            <mxPoint x="320" y="290" as="targetPoint" />
          </mxGeometry>
        </mxCell>
        <mxCell id="bqQAZCj2C-ECfoDd7BLj-171" value="N" style="resizable=0;html=1;whiteSpace=wrap;align=right;verticalAlign=bottom;" connectable="0" vertex="1" parent="bqQAZCj2C-ECfoDd7BLj-170">
          <mxGeometry x="1" relative="1" as="geometry">
            <mxPoint x="20" y="15" as="offset" />
          </mxGeometry>
        </mxCell>
        <mxCell id="bqQAZCj2C-ECfoDd7BLj-172" value="" style="endArrow=none;html=1;rounded=0;entryX=0;entryY=1;entryDx=0;entryDy=0;exitX=0.746;exitY=0.12;exitDx=0;exitDy=0;exitPerimeter=0;" edge="1" parent="1" source="bqQAZCj2C-ECfoDd7BLj-173" target="bqQAZCj2C-ECfoDd7BLj-10">
          <mxGeometry width="50" height="50" relative="1" as="geometry">
            <mxPoint x="450" y="790" as="sourcePoint" />
            <mxPoint x="575" y="775" as="targetPoint" />
          </mxGeometry>
        </mxCell>
        <mxCell id="bqQAZCj2C-ECfoDd7BLj-173" value="Currency" style="ellipse;whiteSpace=wrap;html=1;dashed=1;" vertex="1" parent="1">
          <mxGeometry x="395" y="790" width="70" height="30" as="geometry" />
        </mxCell>
        <mxCell id="bqQAZCj2C-ECfoDd7BLj-91" value="Assigned" style="rhombus;whiteSpace=wrap;html=1;perimeterSpacing=1;" vertex="1" parent="1">
          <mxGeometry x="288.75" y="605" width="62.5" height="50" as="geometry" />
        </mxCell>
      </root>
    </mxGraphModel>
  </diagram>
</mxfile>
